<svg width="11" height="11" viewBox="0 0 11 11" fill="none" xmlns="http://www.w3.org/2000/svg">
<path d="M5.44531 3.27984C5.99198 3.27984 6.53864 3.49848 6.92135 3.93588L7.68666 3.17048C7.08531 2.51452 6.26531 2.18652 5.44533 2.18652C4.57064 2.18652 3.80533 2.51454 3.14933 3.17048C1.89204 4.42778 1.89204 6.50515 3.14933 7.81715C3.75068 8.41851 4.57068 8.74653 5.44533 8.74653C6.31998 8.74653 7.08533 8.41851 7.74133 7.76256L6.97602 6.99725C6.15602 7.81725 4.78935 7.81725 4.02402 6.99725C3.20402 6.12256 3.20402 4.75592 4.02402 3.88125C4.35196 3.49854 4.84394 3.2799 5.44529 3.2799L5.44531 3.27984Z" fill="white"/>
<path d="M5.49999 0C2.49332 0 0.0333252 2.46 0.0333252 5.46667C0.0333252 8.47333 2.49332 10.9333 5.49999 10.9333C8.50666 10.9333 10.9667 8.47333 10.9667 5.46667C10.9667 2.46 8.50666 0 5.49999 0ZM5.49999 9.84C3.09466 9.84 1.12666 7.872 1.12666 5.46667C1.12666 3.06133 3.09466 1.09333 5.49999 1.09333C7.90532 1.09333 9.87332 3.06133 9.87332 5.46667C9.87332 7.872 7.90532 9.84 5.49999 9.84Z" fill="white"/>
</svg>
