<svg width="146" height="146" viewBox="0 0 146 146" fill="none" xmlns="http://www.w3.org/2000/svg">
<path d="M145.908 142.222L142.258 127.622C140.526 120.54 135.276 114.844 128.357 112.542L101.59 103.623C95.0628 100.904 92.0761 90.3923 91.4311 86.4015C96.4048 82.2656 99.6051 76.3811 100.374 69.9582C100.264 68.8612 100.523 67.7588 101.11 66.8252C102.058 66.5877 102.834 65.9084 103.196 65.0002C104.947 60.7594 106.047 56.2779 106.457 51.7082C106.458 51.4599 106.427 51.2126 106.366 50.9722C105.93 49.1966 104.886 47.6296 103.415 46.5435V30.4165C103.415 20.6162 100.422 16.5952 97.2708 14.2652C96.6691 9.54475 91.6139 0 72.9988 0C56.4835 0.664984 43.2471 13.9014 42.5821 30.4168V46.5438C41.1113 47.6299 40.0673 49.1969 39.6316 50.9725C39.57 51.2129 39.5395 51.4604 39.5403 51.7085C39.9498 56.2804 41.0491 60.7639 42.8011 65.0068C43.0646 65.8665 43.7555 66.5278 44.6261 66.7528C44.9669 66.923 45.6056 67.8053 45.6056 69.9588C46.3787 76.3999 49.5975 82.2978 54.5969 86.4326C53.9581 90.4171 50.9893 100.923 44.6446 103.575L17.6406 112.542C10.7276 114.844 5.4807 120.534 3.74638 127.611L0.0963751 142.211C-0.316816 143.839 0.668114 145.494 2.29636 145.907C2.53959 145.969 2.78968 146 3.04061 146.001H142.957C144.637 146 145.999 144.638 145.998 142.958C145.998 142.71 145.967 142.463 145.908 142.222Z" fill="#455A64"/>
</svg>
