<svg width="29" height="29" viewBox="0 0 29 29" fill="none" xmlns="http://www.w3.org/2000/svg">
<path d="M24.3038 17.287C23.6737 16.6308 22.9136 16.28 22.1081 16.28C21.309 16.28 20.5424 16.6243 19.8863 17.2805L17.8334 19.3268C17.6645 19.2359 17.4956 19.1514 17.3332 19.067C17.0993 18.95 16.8784 18.8396 16.69 18.7227C14.7671 17.5013 13.0196 15.9097 11.3435 13.8504C10.5314 12.8239 9.98574 11.9599 9.58946 11.0829C10.1222 10.5957 10.6159 10.0889 11.0966 9.6017C11.2785 9.4198 11.4604 9.23141 11.6423 9.04951C13.0066 7.68526 13.0066 5.91823 11.6423 4.55399L9.8688 2.78047C9.66741 2.57908 9.45953 2.37119 9.26464 2.16331C8.87485 1.76053 8.46558 1.34476 8.04331 0.954973C7.41316 0.331317 6.65957 0 5.86701 0C5.07445 0 4.30787 0.331317 3.65823 0.954973C3.65173 0.961469 3.65173 0.96147 3.64524 0.967966L1.43645 3.19624C0.604913 4.02778 0.130674 5.04122 0.0267318 6.21707C-0.129182 8.11402 0.42951 9.88105 0.858273 11.0374C1.91069 13.8763 3.48283 16.5074 5.82803 19.3268C8.67346 22.7245 12.0971 25.4075 16.0079 27.2979C17.5021 28.006 19.4965 28.8441 21.7248 28.987C21.8612 28.9935 22.0041 29 22.134 29C23.6347 29 24.895 28.4608 25.8825 27.3889C25.889 27.3759 25.902 27.3694 25.9085 27.3564C26.2463 26.9471 26.6361 26.5768 27.0453 26.1806C27.3247 25.9142 27.6105 25.6349 27.8899 25.3425C28.533 24.6734 28.8708 23.8938 28.8708 23.0948C28.8708 22.2892 28.5265 21.5161 27.8704 20.8665L24.3038 17.287ZM26.6296 24.1277C26.6231 24.1277 26.6231 24.1342 26.6296 24.1277C26.3762 24.4005 26.1163 24.6474 25.837 24.9203C25.4147 25.323 24.986 25.7453 24.5832 26.2195C23.927 26.9211 23.154 27.2525 22.1405 27.2525C22.0431 27.2525 21.9391 27.2525 21.8417 27.246C19.9123 27.1225 18.1193 26.369 16.7745 25.7258C13.0975 23.9458 9.8688 21.4187 7.18578 18.216C4.9705 15.5459 3.48932 13.0773 2.50836 10.4267C1.9042 8.80914 1.68332 7.54884 1.78076 6.35999C1.84573 5.59991 2.13807 4.96976 2.67727 4.43056L4.89255 2.21528C5.21087 1.91644 5.54869 1.75403 5.88 1.75403C6.28928 1.75403 6.62059 2.0009 6.82848 2.20878C6.83498 2.21528 6.84147 2.22177 6.84797 2.22827C7.24425 2.59857 7.62104 2.98186 8.01732 3.39113C8.21871 3.59901 8.4266 3.8069 8.63448 4.02128L10.408 5.7948C11.0966 6.48342 11.0966 7.12007 10.408 7.80869C10.2196 7.99709 10.0377 8.18548 9.84931 8.36738C9.30361 8.92607 8.7839 9.44579 8.21871 9.95251C8.20572 9.9655 8.19273 9.972 8.18623 9.98499C7.62754 10.5437 7.73148 11.0894 7.84842 11.4597C7.85491 11.4792 7.86141 11.4987 7.86791 11.5181C8.32915 12.6355 8.97879 13.6879 9.96625 14.9418L9.97274 14.9483C11.7658 17.157 13.6562 18.8786 15.7416 20.1974C16.0079 20.3663 16.2808 20.5027 16.5406 20.6326C16.7745 20.7496 16.9954 20.86 17.1838 20.9769C17.2098 20.9899 17.2357 21.0094 17.2617 21.0224C17.4826 21.1328 17.6905 21.1848 17.9049 21.1848C18.4441 21.1848 18.7819 20.847 18.8923 20.7366L21.1141 18.5148C21.335 18.2939 21.6858 18.0276 22.0951 18.0276C22.4978 18.0276 22.8292 18.2809 23.0305 18.5018C23.037 18.5083 23.037 18.5083 23.0435 18.5148L26.6231 22.0943C27.2922 22.7569 27.2922 23.4391 26.6296 24.1277Z" fill="#535C6D"/>
</svg>
