<svg width="18" height="18" viewBox="0 0 18 18" fill="none" xmlns="http://www.w3.org/2000/svg">
<path d="M18 7.28322V10.7168C18 10.9753 17.7906 11.185 17.5318 11.185H11.185V17.5317C11.185 17.7906 10.9753 17.9999 10.7168 17.9999H7.28324C7.02491 17.9999 6.81502 17.7905 6.81502 17.5317V11.185H0.468218C0.209535 11.185 0 10.9753 0 10.7168V7.28322C0 7.02469 0.209535 6.815 0.468218 6.815H6.81502V0.468216C6.81502 0.209431 7.02486 0 7.28324 0H10.7168C10.9753 0 11.185 0.209431 11.185 0.468216V6.815H17.5318C17.7906 6.815 18 7.02469 18 7.28322Z" fill="black"/>
</svg>
