<svg width="55" height="55" viewBox="0 0 55 55" fill="none" xmlns="http://www.w3.org/2000/svg">
<g clip-path="url(#clip0_993_3147)">
<path d="M49.9758 23.1936L27.5048 37.834L5.03375 23.1936L0.00952148 25.8088L27.5048 43.6533L55.0001 25.8088L49.9758 23.1936Z" fill="#51596A"/>
<path d="M49.9758 32.8564L27.5048 47.497L5.03375 32.8564L0.00952148 35.4717L27.5048 53.3162L55.0001 35.4717L49.9758 32.8564Z" fill="#51596A"/>
<path d="M16.6679 7.33667L11.6643 9.99815L19.3858 14.9942L24.2525 12.032L16.6679 7.33667Z" fill="#51596A"/>
<path d="M19.3333 18.7971L11.4973 23.5669L16.9076 27.092L24.5301 22.1596L19.3333 18.7971Z" fill="#51596A"/>
<path d="M27.324 13.9331L22.3889 16.9371L27.495 20.241L32.3934 17.0713L27.324 13.9331Z" fill="#51596A"/>
<path d="M35.4237 18.9475L30.4597 22.1594L38.0828 27.0918L43.1973 23.7595L35.4237 18.9475Z" fill="#51596A"/>
<path d="M38.2363 7.29077L30.4102 12.0544L35.3862 15.1348L43.3254 9.9977L38.2363 7.29077Z" fill="#51596A"/>
<path d="M27.4949 24.0779L19.8623 29.0168L27.4954 33.9902L35.1282 29.0169L27.4949 24.0779Z" fill="#51596A"/>
<path d="M8.41017 11.7292L0 16.1457L8.50502 21.6172L16.3304 16.854L8.41017 11.7292Z" fill="#51596A"/>
<path d="M27.4953 1.68384L19.96 5.5854L27.3388 10.1533L34.9304 5.53212L27.4953 1.68384Z" fill="#51596A"/>
<path d="M46.5796 11.7288L38.4165 17.0108L46.1792 21.8165L54.9905 16.1456L46.5796 11.7288Z" fill="#51596A"/>
</g>
<defs>
<clipPath id="clip0_993_3147">
<rect width="55" height="55" fill="white"/>
</clipPath>
</defs>
</svg>
