<svg width="24" height="27" viewBox="0 0 24 27" fill="none" xmlns="http://www.w3.org/2000/svg">
<g clip-path="url(#clip0_901:3891)">
<path d="M12.0276 14.1833C5.70182 14.1833 0.555115 19.3532 0.555115 25.7073C0.555115 26.1966 0.9505 26.5938 1.43764 26.5938C1.92477 26.5938 2.32016 26.1965 2.32016 25.7072C2.32016 20.33 6.67435 15.9562 12.0276 15.9562C17.3808 15.9562 21.735 20.33 21.735 25.7072C21.735 26.1965 22.1304 26.5937 22.6175 26.5937C23.1046 26.5937 23.5 26.1965 23.5 25.7072C23.5 19.3532 18.3533 14.1833 12.0276 14.1833Z" fill="#535C6D"/>
<path d="M12.0275 0C8.62112 0 5.85004 2.78344 5.85004 6.20522C5.85004 9.62699 8.62104 12.4104 12.0275 12.4104C15.434 12.4104 18.205 9.62691 18.205 6.20522C18.205 2.78353 15.434 0 12.0275 0ZM12.0275 10.6375C9.5954 10.6375 7.61508 8.64826 7.61508 6.20522C7.61508 3.76217 9.5954 1.77297 12.0275 1.77297C14.4596 1.77297 16.44 3.76217 16.44 6.20522C16.44 8.64826 14.4597 10.6375 12.0275 10.6375Z" fill="#535C6D"/>
</g>
<defs>
<clipPath id="clip0_901:3891">
<rect width="23" height="26.5938" fill="white" transform="translate(0.5)"/>
</clipPath>
</defs>
</svg>
